<?xml version="1.0" standalone="no"?>
<!DOCTYPE svg PUBLIC "-//W3C//DTD SVG 20010904//EN"
 "http://www.w3.org/TR/2001/REC-SVG-20010904/DTD/svg10.dtd">
<svg version="1.0" xmlns="http://www.w3.org/2000/svg"
 width="512.000000pt" height="512.000000pt" viewBox="0 0 512.000000 512.000000"
 preserveAspectRatio="xMidYMid meet">
<metadata>
Created by potrace 1.11, written by Peter Selinger 2001-2013
</metadata>
<g transform="translate(0.000000,512.000000) scale(0.100000,-0.100000)"
fill="#000000" stroke="none">
<path d="M2390 5103 c-14 -2 -72 -10 -130 -18 -144 -21 -155 -23 -235 -49
-151 -50 -308 -131 -383 -199 -300 -269 -406 -482 -398 -797 6 -208 48 -316
165 -429 138 -132 309 -142 426 -23 47 48 64 81 79 155 20 99 7 152 -81 332
-73 147 -99 212 -108 271 -26 153 4 244 114 355 112 111 212 160 381 185 73
11 261 12 305 2 22 -5 47 -11 55 -13 39 -8 151 -56 200 -85 233 -137 368 -348
427 -665 9 -50 11 -369 3 -416 -5 -24 -11 -62 -14 -84 -4 -22 -11 -58 -17 -80
-6 -22 -13 -48 -14 -57 -5 -24 -51 -150 -76 -206 -35 -80 -44 -100 -180 -377
-214 -437 -274 -566 -332 -710 -62 -151 -125 -396 -142 -545 -3 -30 -8 -66
-10 -80 -3 -14 -9 -74 -15 -135 -6 -60 -13 -122 -15 -136 -6 -33 1 -36 84 -34
49 0 65 4 66 15 1 8 5 49 9 90 8 89 12 121 32 220 8 41 16 84 18 95 2 11 11
43 21 71 9 28 18 57 19 65 4 20 14 45 45 114 24 52 168 275 214 331 9 10 56
69 104 129 48 61 98 121 110 135 66 76 283 332 311 367 19 23 41 51 50 62 10
10 24 29 32 41 8 12 23 32 33 43 44 51 149 220 197 314 62 125 117 290 134
403 18 119 18 330 0 413 -46 222 -152 415 -314 577 -201 202 -447 308 -800
346 -54 6 -342 11 -370 7z"/>
<path d="M2425 805 c-141 -26 -264 -133 -307 -267 -35 -112 -17 -265 43 -350
38 -54 110 -116 169 -146 50 -25 65 -27 165 -26 111 0 141 8 220 57 35 22 103
96 129 140 91 154 56 376 -78 494 -98 86 -219 121 -341 98z"/>
</g>
</svg>
